<svg width="1080" height="649" viewBox="0 0 1080 649" fill="none" xmlns="http://www.w3.org/2000/svg">
<path d="M15 421.891C70.9131 354.231 131.6 240.474 131.262 221.339L130.535 554.139C130.535 605.73 104.376 634.796 75.3109 633.342C46.2454 631.889 27.3528 616.629 23.7196 575.938C21.1245 546.873 44.7921 499.641 86.9371 466.942C129.082 434.244 129.809 445.87 170.5 414.625C211.192 383.379 241.711 347.047 255.517 314.348C269.323 281.65 267.143 246.771 267.143 221.339C266.763 287.523 268.596 352.134 274.409 372.479C280.223 392.825 305.655 416.804 344.167 414.625C380.057 410.229 405.204 387.739 413.197 353.587C421.19 319.435 420.464 309.987 419.01 221.339C419.913 280.301 416.83 359.401 426.277 384.833C435.723 410.265 456.069 414.625 472.781 414.625C502.574 413.171 525.826 393.552 544.719 374.659C563.611 355.767 589.043 325.975 621.015 249.678C652.987 173.381 663.16 82.5514 635.548 37.4999C607.936 -7.5515 557.071 14.2476 545.445 110.164C533.819 206.08 545.317 357.552 565.791 389.919C581.05 410.991 589.77 413.898 623.922 415.351C656.621 415.351 695.132 397.911 719.838 357.22C744.544 316.529 747.837 268.952 748.177 221.339C746.788 322.539 741.762 379.02 765.741 401.545C789.72 424.071 856.81 445.323 881.441 275.077C835.076 404.029 950.909 429.884 994.507 402.272C1044.64 368.847 1037.48 276.003 1001.05 249.678C974.171 230.256 895.206 215.672 874.197 297.535C853.188 339.553 999.564 329.407 1065 283.432" stroke="#897869" stroke-width="30" stroke-linecap="round" stroke-linejoin="round"/>
</svg>
