<svg width="70" height="70" viewBox="0 0 70 70" fill="none" xmlns="http://www.w3.org/2000/svg">
    <g clip-path="url(#clip0_633_1500)">
        <path fill-rule="evenodd" clip-rule="evenodd"
            d="M41.1772 4.11987V65.8857H32.9417L16.4709 49.4148V20.5908L32.9417 4.11987H41.1772ZM60.9575 13.1636C66.7923 18.9984 70 26.7562 70 35.004C70 43.2518 66.7923 51.0055 60.9575 56.8403L58.0463 53.9291C63.1028 48.8766 65.8822 42.1524 65.8822 35.004C65.8822 27.8515 63.1028 21.1314 58.0463 16.0749L60.9575 13.1636ZM12.3532 20.5908V49.4148H6.17659C2.75887 49.4148 0 46.6559 0 43.2382V26.7673C0 23.3496 2.75887 20.5908 6.17659 20.5908H12.3532ZM52.2357 21.9064C55.7276 25.4435 57.6464 30.0965 57.6464 35.0007C57.6464 39.909 55.7276 44.562 52.2357 48.0992L49.308 45.2126C52.0299 42.4456 53.5287 38.8179 53.5287 35.0007C53.5287 31.1877 52.0299 27.56 49.308 24.7929L52.2357 21.9064Z"
            fill="#897869" />
    </g>
    <defs>
        <clipPath id="clip0_633_1500">
            <rect width="70" height="70" fill="white" />
        </clipPath>
    </defs>
</svg>